<svg width="1440" height="529" viewBox="0 0 1440 529" fill="none" xmlns="http://www.w3.org/2000/svg">
<rect y="169" width="1440" height="360" fill="#1378C6"/>
<ellipse cx="1347.5" cy="203.5" rx="148.5" ry="142.5" fill="#1378C6"/>
<ellipse cx="200.5" cy="281.5" rx="148.5" ry="142.5" fill="#1378C6"/>
<ellipse cx="63.5" cy="231.5" rx="148.5" ry="142.5" fill="#1378C6"/>
<path d="M287.492 24.1305C287.894 23.8405 288.321 23.7823 288.748 23.7241C296.239 20.822 302.66 25.6023 304.725 35.9214C305.715 40.7332 303.951 44.2707 300.742 46.5912C297.719 48.6509 294.564 49.5508 290.846 49.3497C290.417 49.4076 289.962 49.2341 289.535 49.2922C289.347 49.5532 289.402 50.017 289.427 50.2488C288.255 58.8881 279.268 63.8781 271.99 59.2142C271.293 58.8375 270.359 58.2581 269.634 57.6497C266.959 55.1869 265.085 52.1438 265.058 48.1433C264.923 46.9839 265.03 46.0271 265.325 44.8096C265.565 43.128 266.259 41.6202 267.221 40.5473C267.624 40.2573 267.784 39.7643 268.158 39.2423C267.889 38.8077 267.864 38.5757 267.596 38.1411C263.714 30.8955 267.16 21.2405 275.212 19.4398C276.281 19.2942 277.351 19.1488 278.423 19.0035C280.589 18.9445 282.408 19.6393 284.094 21.0592C284.816 21.6676 285.565 22.508 286.315 23.3485C286.984 23.4931 287.224 23.6959 287.492 24.1305Z" fill="#1378C6"/>
<path d="M254.925 23.6807C254.143 22.3953 253.359 21.1098 252.759 19.5671C251.61 16.9391 251.844 13.4247 252.937 11.8812C254.034 10.3378 254.842 9.99468 256.328 10.0225C257.164 9.90804 258.05 10.2505 258.937 10.5929C262.954 12.3625 265.015 15.5616 265.957 20.0757C266.062 20.99 265.957 21.9328 265.826 22.6471C265.541 23.8474 264.81 24.8764 263.845 25.7052C261.499 27.4207 259.178 27.5073 256.83 25.5085C255.916 24.9374 255.422 24.3089 254.925 23.6807Z" fill="#1378C6"/>
<path d="M266.02 11.7314C264.972 10.2078 264.324 8.39103 264.055 6.04652C263.999 5.57762 263.947 5.10871 264.107 4.61052C264.107 2.70537 265.264 1.35675 266.933 0.652519C269.839 -0.696857 272.343 0.151826 274.55 2.23197C276.275 3.90154 277.594 5.86477 278.51 8.12116C279.721 11.0515 278.62 14.7739 275.955 16.3286C274.53 17.2378 273.21 17.1798 271.81 16.4182C269.522 15.54 267.611 14.134 266.02 11.7314Z" fill="#1378C6"/>
<path d="M262.739 40.0761C263.156 41.9556 263.129 43.6561 262.247 45.2379C261.599 47.0281 260.224 47.9537 258.536 47.9545C257.081 48.1639 255.757 47.6275 254.614 46.8225C253.031 45.8388 251.809 44.3177 250.771 42.5282C249.939 40.7086 249.054 38.4118 249.001 35.9954C248.95 33.5788 251.39 30.8031 253.31 31.011C255.854 31.1293 258.063 32.0232 259.31 33.7829C260.765 35.5125 262.322 38.1969 262.739 40.0761Z" fill="#1378C6"/>
<path d="M290.966 6.11153C291.914 7.68971 292.5 9.57156 292.889 11.4837C292.987 12.4551 293.109 13.6695 292.818 14.7018C292.6 16.4626 290.993 18.194 289.194 17.9824C288.389 17.8613 287.782 17.7099 287.149 17.3154C286.296 16.7086 285.64 16.0715 284.983 15.4344C283.863 14.1295 283.083 12.278 282.524 10.6391C282.231 9.69809 282.158 8.96942 282.111 8.48373C281.695 6.32857 282.497 4.4763 283.738 3.04904C284.613 1.92517 285.781 1.74261 286.828 2.31881C288.069 2.86466 289.165 3.92655 290.064 5.01904C290.478 5.20108 290.721 5.65617 290.966 6.11153Z" fill="#1378C6"/>
<path d="M362.926 79.6891C361.148 75.1806 360.42 70.5876 360.728 65.6783C360.891 64.9673 360.844 64.2732 361.009 63.5622C356.978 66.4461 352.435 67.976 347.799 68.1176C346.328 68.2363 344.842 68.1237 343.131 67.7966C335.866 66.5225 329.032 62.1896 325.032 56C324.657 56.728 324.494 57.439 324.106 57.9357C322.984 60.1197 321.636 62.089 320.079 64.0756C310.784 76.6884 301.937 89.7302 294.204 103.613C287.966 114.583 283.905 126.541 281.587 139.288C280.369 146.364 279.57 153.407 279.416 160.629C279.478 161.555 279.554 162.712 278.956 163.225C278.762 163.473 278.537 163.259 278.312 163.045C277.633 162.402 276.957 161.758 276.266 160.884C269.32 151.676 265.866 141.023 268.021 128.986C269.121 123.315 270.868 117.824 273.486 112.729C274.98 109.817 276.25 106.69 277.745 103.779C277.294 103.35 276.844 102.921 276.393 102.492C276.736 101.301 277.305 100.325 277.662 99.3657C279.844 94.0725 279.476 88.52 278.896 82.9847C278.486 79.9939 277.656 77.0372 276.422 74.3457C274.688 70.5316 271.79 68.2071 268.08 66.4132C268.597 71.0231 268.671 78.4605 267.042 82.546C266.489 83.7537 265.532 85.2266 263.97 83.9572C257.705 88.1845 255.685 92.7667 255.163 94.437C253.925 98.026 253.106 101.581 252.932 105.317C252.963 105.779 252.83 106.953 252.426 107.218C251.897 105.633 251.596 104.262 251.083 102.908C249.838 103.241 249.51 104.663 249.153 105.622C248.66 107.755 248.153 109.657 247.662 111.79C246.576 117.692 246.346 123.758 247.796 129.689C247.827 130.151 248.068 130.597 247.874 130.845C247.049 131.145 246.551 130.022 246 131.229C246.511 132.584 247.04 134.169 247.776 135.738C248.32 137.555 249.072 139.354 249.617 141.171C250.656 144.111 251.486 147.068 252.542 150.239C254.173 155.69 257.406 159.848 261.221 163.261C267.292 168.819 274.322 172.903 282.035 174.606C286.538 175.638 291.011 176.208 295.648 176.066C301.558 176.054 307.305 176.752 313.278 177.666C319.688 178.777 326.049 179.195 332.366 178.917C335.936 178.627 339.282 178.125 342.564 176.697C344.003 176.115 344.798 175.353 344.481 173.751C344.055 170.529 342.759 166.913 338.542 167.02C337.283 167.122 335.797 167.009 334.537 167.111C334.249 165.971 334.818 164.995 335.177 164.036C335.684 162.134 336.612 160.198 336.908 158.314C337.649 153.602 337.763 148.941 337.455 144.314C337.285 141.769 336.71 139.489 335.701 137.012C334.18 133.181 331.489 130.84 327.843 129.971C325.05 129.266 322.29 129.024 319.59 129.707C318.345 130.04 317.1 130.373 315.855 130.706C315.614 130.261 316.214 129.747 316.634 129.713C320.891 127.043 325.706 126.422 330.418 127.437C335.987 128.616 339.595 132.046 341.239 137.728C342.326 141.362 342.781 145.047 342.397 148.799C342.223 152.535 341.63 156.304 341.246 160.057C341.083 160.768 341.143 161.693 340.996 162.636C344.929 164.644 347.245 167.713 348.798 172.008C349.055 172.684 349.327 173.593 349.584 174.269C349.9 175.872 350.786 176.498 352.078 176.86C354.434 177.366 363.075 177.135 364.936 176.518C366.391 176.169 366.897 174.267 367 172.63C366.891 171.013 366.364 169.426 366.27 168.038C365.969 166.667 365.278 165.792 364.18 165.183C363.519 164.771 362.649 164.376 361.808 164.444C360.099 164.117 358.986 163.276 358.037 161.725C357.091 160.173 356.159 158.853 355.405 157.053C354.637 155.022 354.062 152.742 353.908 150.428C353.129 141.885 353.609 133.24 354.3 124.579C354.419 123.173 354.956 121.734 355.719 120.51C357.23 117.829 358.531 115.166 360.041 112.485C360.025 112.254 360.416 111.757 360.445 112.22C360.927 113.112 361.183 113.789 361.906 115.126C363.053 110.149 364.037 105.883 364.568 101.188C364.537 100.725 364.506 100.263 364.477 99.7997C364.445 99.3369 364.189 98.6598 364.805 98.3777C365.208 98.1125 365.643 98.3099 366.273 98.259C366.656 94.5065 365.585 91.104 365.162 87.8822C365.759 87.3685 366.166 87.1033 366.569 86.8379C365.139 84.3949 363.937 82.166 362.926 79.6891Z" fill="#1378C6"/>
<path d="M389.725 24.6299C388.401 23.816 387.095 23.2308 385.802 22.8744C381.491 21.6093 377.18 20.3445 372.885 19.3082C371.172 18.985 370.061 18.1546 369.096 16.393C366.897 11.9727 363.349 9.49793 358.844 8.47837C355.194 7.62027 351.637 8.13358 348.126 9.33258C347.092 9.64508 346.266 9.94058 345.23 10.2528C344.748 9.37216 344.491 8.70321 344.024 8.05102C343.303 6.72989 342.205 6.12796 340.93 6C338.617 6.18429 337.161 6.53006 335.543 7.57827C333.127 9.3792 330.939 11.3921 328.526 13.193C327.521 13.9625 327.177 15.1389 327.059 16.5271C326.927 17.6865 327.019 19.0579 327.307 20.184C328.983 26.2548 332.475 31.0319 337.181 35.0227C338.293 35.8534 339.599 36.4385 341.024 35.6356C341.834 35.1113 341.711 33.2827 341.845 32.1233C341.961 30.7351 341.854 29.135 341.973 27.7471C342.207 24.9708 342.444 22.1945 342.678 19.4182C342.647 18.961 342.781 17.8016 343.638 17.963C344.477 17.896 345.036 19.9196 344.949 21.7647C344.761 25.2267 344.306 31.0078 344.1 34.2413C343.951 35.1723 343.803 36.1034 343.638 36.8059C343.1 38.2276 341.707 39.4875 340.01 39.3931C337.878 39.1034 334.797 37.2808 331.803 33.6129C330.886 32.5373 329.64 32.8663 329.102 34.288C328.742 35.2356 328.564 35.7096 328.204 36.6573C327.369 39.9411 327.508 41.9982 327.53 45.4434C327.575 46.1291 327.412 46.8316 327.459 47.5173C330.263 54.6469 336.983 60.3156 344.252 61.5746C350.454 62.6886 357.15 61.6955 361.945 57.6364C362.063 56.2483 362.376 54.6146 362.494 53.2265C362.91 49.9765 363.492 49.2405 366.645 48.9892C371.478 48.6038 384.237 46.6677 387.307 42.0569C389.598 38.4274 391.913 32.0386 392 30.1932C391.846 27.9076 391.498 25.8673 389.725 24.6299ZM364.071 26.4452C363.003 26.3002 362.148 26.1387 361.291 25.9773C359.788 25.6373 359.518 24.7399 360.476 23.2847C361.224 21.8463 362.213 20.8484 363.428 20.0622C365.488 22.4254 365.776 23.5516 364.071 26.4452Z" fill="#1378C6"/>
<path d="M1186.85 118.112C1185.12 117.386 1184.36 116.541 1183 115.561C1179.27 112.366 1175.61 108.85 1171.88 105.655C1167.15 101.226 1162.79 96.5427 1158.06 92.1137C1157.82 91.7248 1157.29 91.2683 1156.99 91.201C1152.67 87.8719 1148.42 84.2213 1144.39 80.9595C1139.31 76.7847 1132.63 77.6245 1128.24 82.6766C1122.17 90.0341 1115.86 97.0027 1109.79 104.36C1106.61 108.005 1103.72 111.718 1100.53 115.363C1099.33 116.77 1097.83 118.11 1096.33 119.449C1094.47 121.044 1092.44 121.927 1090 121.711C1087.26 121.427 1085.43 119.669 1085.04 116.893C1084.93 115.86 1085.05 115.216 1085.54 114.318C1085.96 113.742 1086.38 113.166 1087.1 112.657C1102.6 95.0077 1118.17 77.0365 1133.67 59.3876C1134.45 58.5568 1134.94 57.6587 1135.65 57.1495C1137.51 55.5552 1139.66 55.7043 1141.25 57.0735C1141.78 57.5296 1142.32 57.9862 1142.79 58.7642C1158.79 75.4856 1174.49 92.14 1190.43 109.183C1191.96 110.874 1192.48 113.007 1192.41 115.005C1192.4 116.681 1191.62 117.512 1190.54 118.275C1189.58 118.395 1187.97 118.703 1186.85 118.112Z" fill="#1378C6"/>
<path d="M1174.65 117.029C1169.04 110.722 1163.01 104.991 1157.35 99.006C1154.75 96.4022 1152.09 94.1204 1149.43 91.8386C1147 89.9459 1144.58 88.0533 1141.85 86.0934C1138 83.5424 1133.47 84.5314 1130.28 88.1765C1129.5 89.0073 1129.02 89.9054 1128.3 90.4142C1124.69 94.6355 1121.38 98.9244 1117.78 103.146C1112.61 109.029 1107.44 114.912 1102.21 121.117C1101.43 121.948 1101.25 122.913 1100.76 123.811C1100.03 125.996 1100.25 128.062 1100.47 130.127C1101.31 137.034 1102.15 143.941 1102.99 150.848C1103.89 157.433 1104.49 163.951 1105.39 170.536C1106.06 175.056 1107.36 176.357 1111.71 176.332C1121.06 176.1 1130.12 175.798 1139.4 175.885C1149.05 175.718 1158.4 175.486 1168.05 175.32C1170.84 175.281 1173.12 173.11 1173.09 170.078C1173.17 168.08 1173.48 166.471 1173.55 164.473C1174.14 158.225 1174.79 151.654 1175.08 145.338C1175.72 138.768 1176.01 132.452 1176.66 125.881C1177.7 122.087 1176.95 119.565 1174.65 117.029ZM1159.65 160.989C1159.58 161.311 1159.58 161.311 1159.52 161.633C1159.26 164.597 1157.99 166.325 1155.2 166.364C1153.95 166.416 1152.99 166.536 1151.74 166.589C1147.69 166.68 1143.94 166.837 1139.89 166.928C1135.84 167.019 1131.49 167.042 1127.44 167.133C1126.85 166.999 1126.19 167.186 1125.6 167.051C1122.8 167.089 1121.09 164.687 1121.17 162.689C1121.23 162.368 1120.99 161.979 1121.12 161.335C1121.21 157.661 1120.94 154.241 1121.03 150.567C1121.01 145.86 1122.11 141.744 1124.11 137.829C1125.92 134.88 1127.73 131.932 1130.07 129.439C1136.19 123.436 1143.04 123.308 1149.36 129.105C1152.79 132.233 1155.5 135.869 1157.43 140.336C1158.78 142.992 1159.47 145.836 1159.51 148.867C1159.65 152.93 1159.8 156.993 1159.65 160.989Z" fill="#1378C6"/>
<path d="M1233.52 56.6615C1227.83 71.5531 1213.55 69.5461 1202.6 71.878C1192.65 74.0806 1183.09 79.0937 1180.98 82C1181.37 78.2479 1178.55 67.5092 1172.6 57.7104C1166.45 47.5542 1155.71 35.9332 1161.82 21.0255C1172.67 -6.0942 1201.39 1.10394 1201.66 29.0756C1219.26 10.813 1243.93 29.1029 1233.52 56.6615Z" fill="#1378C6"/>
</svg>
