<svg width="813" height="735" viewBox="0 0 813 735" fill="none" xmlns="http://www.w3.org/2000/svg">
<mask id="mask0_351_2" style="mask-type:alpha" maskUnits="userSpaceOnUse" x="0" y="0" width="813" height="735">
<path d="M813 0H0V734.111H813V0Z" fill="#EDEDED"/>
</mask>
<g mask="url(#mask0_351_2)">
<path d="M189.392 994.929C400.535 1040.04 607.488 901.712 651.633 685.986C695.779 470.257 560.401 258.809 349.258 213.705C138.115 168.599 -68.8375 306.918 -112.983 522.648C-157.13 738.376 -21.7512 949.821 189.392 994.929Z" fill="#CADEF1"/>
<path d="M293.56 169.689C292.286 169.182 291.719 168.593 290.711 167.908C287.956 165.679 285.246 163.224 282.489 160.994C278.992 157.903 275.76 154.633 272.262 151.542C272.089 151.271 271.695 150.952 271.475 150.905C268.279 148.581 265.129 146.033 262.154 143.756C258.39 140.843 253.452 141.428 250.206 144.955C245.714 150.09 241.047 154.954 236.554 160.09C234.198 162.635 232.061 165.226 229.705 167.77C228.816 168.753 227.707 169.688 226.597 170.623C225.223 171.736 223.719 172.353 221.914 172.201C219.89 172.003 218.535 170.776 218.244 168.838C218.161 168.118 218.253 167.668 218.611 167.041C218.923 166.639 219.234 166.236 219.767 165.881C231.236 153.562 242.752 141.018 254.222 128.698C254.799 128.118 255.156 127.492 255.688 127.136C257.063 126.024 258.648 126.127 259.829 127.083C260.223 127.402 260.617 127.72 260.965 128.264C272.802 139.935 284.42 151.56 296.211 163.456C297.347 164.637 297.73 166.126 297.675 167.52C297.665 168.69 297.087 169.27 296.29 169.803C295.584 169.887 294.393 170.102 293.56 169.689Z" fill="#CADEF1"/>
<path d="M284.536 168.934C280.389 164.531 275.93 160.531 271.736 156.353C269.814 154.536 267.846 152.942 265.877 151.35C264.082 150.029 262.288 148.707 260.273 147.34C257.425 145.559 254.071 146.249 251.715 148.793C251.137 149.374 250.78 150.001 250.248 150.356C247.58 153.303 245.132 156.295 242.463 159.242C238.64 163.349 234.817 167.456 230.948 171.787C230.37 172.367 230.233 173.04 229.875 173.667C229.334 175.193 229.497 176.634 229.661 178.076C230.28 182.897 230.9 187.718 231.52 192.539C232.185 197.136 232.632 201.685 233.296 206.282C233.799 209.437 234.76 210.346 237.975 210.329C244.892 210.166 251.589 209.955 258.461 210.016C265.598 209.899 272.515 209.737 279.652 209.62C281.722 209.593 283.409 208.078 283.383 205.963C283.439 204.568 283.668 203.445 283.725 202.05C284.159 197.688 284.638 193.102 284.852 188.694C285.331 184.107 285.545 179.698 286.025 175.113C286.796 172.464 286.238 170.704 284.536 168.934ZM273.438 199.618C273.392 199.843 273.392 199.843 273.346 200.067C273.152 202.137 272.217 203.343 270.146 203.37C269.221 203.406 268.516 203.49 267.591 203.526C264.595 203.59 261.819 203.7 258.822 203.764C255.826 203.827 252.611 203.843 249.615 203.907C249.175 203.813 248.69 203.944 248.25 203.85C246.179 203.876 244.917 202.2 244.972 200.805C245.018 200.58 244.844 200.309 244.936 199.859C245.002 197.295 244.803 194.908 244.868 192.343C244.852 189.057 245.669 186.184 247.146 183.452C248.485 181.394 249.825 179.336 251.557 177.596C256.086 173.405 261.152 173.316 265.831 177.363C268.368 179.546 270.372 182.084 271.799 185.202C272.796 187.056 273.308 189.041 273.334 191.156C273.442 193.993 273.55 196.829 273.438 199.618Z" fill="#CADEF1"/>
<path d="M157.403 61.363C157.366 60.4176 157.55 59.5191 157.688 58.8453C157.974 56.3275 157.554 53.8934 156.475 51.3186C154.618 46.9364 151.919 43.312 148.109 40.6227C147.321 39.9856 146.881 39.8917 146.048 39.4792C145.828 39.4322 144.995 39.0198 144.775 38.9728C142.357 38.4562 141.247 39.3914 141.667 41.8255C141.913 43.988 142.379 46.1973 143.331 48.2761C146.21 56.6278 147.24 65.053 146.592 73.8233C146.628 74.7688 146.399 75.8919 146.215 76.7904C146.169 77.0149 146.077 77.4642 146.031 77.6888C145.883 79.5327 147.018 80.713 148.741 80.1433C149.978 79.7042 150.995 79.2182 152.058 78.5076C153.919 77.264 155.514 76.198 157.201 74.6829C159.153 72.99 160.621 71.428 162.573 69.7352C163.151 69.1552 163.82 68.126 163.784 67.1806C163.977 65.112 163.467 63.1272 161.984 61.4038C161.809 61.1322 161.416 60.8137 161.242 60.5421C160.234 59.8581 159.355 59.6702 158.291 60.3808C157.98 60.7831 157.714 60.9608 157.403 61.363Z" fill="#CADEF1"/>
<path d="M118.611 90.5856C119.664 91.0457 120.462 90.5125 121.214 90.2038C121.964 89.8959 122.496 89.5401 123.248 89.2322C123.999 88.9234 124.97 88.6625 125.63 88.8034C126.51 88.9913 126.811 89.7584 127.113 90.5265C128.182 94.2718 130.489 97.5779 132.529 101.061C132.877 101.604 133.225 102.148 133.619 102.466C140.062 111.344 147.323 117.35 157.866 120.774C168.408 124.198 181.091 119.406 184.096 118.172C185.068 117.911 185.865 117.378 186.837 117.116C189.091 116.192 190.538 116.969 191.453 118.103C195.729 123.001 198.235 128.695 198.706 135.359C198.815 138.196 198.969 140.808 198.417 143.503C197.957 145.749 197.278 147.949 195.718 149.96C195.095 150.764 194.738 151.392 194.288 152.467C193.966 154.04 194.268 154.807 195.761 155.361C199.058 156.065 204.329 152.737 206.623 147.131C206.669 146.907 206.715 146.682 206.934 146.729C206.98 146.505 207.201 146.552 207.42 146.599C210.232 147.434 213.852 146.566 215.466 143.16C216.366 141.008 216.606 138.714 215.966 136.234C214.805 132.938 213.378 129.82 211.686 126.879C209.424 123.348 206.899 119.995 204.06 117.045C201.616 114.413 199.172 111.781 196.508 109.102C195.419 107.697 194.063 106.47 192.975 105.065C191.839 103.885 190.75 102.479 189.88 101.121C189.185 100.035 188.443 99.174 187.528 98.0407C188.06 97.6849 188.591 97.33 188.857 97.1517C189.655 96.6194 190.232 96.0392 190.856 95.2347C192.368 93.4481 192.343 91.3328 191.126 89.4314C190.43 88.345 189.469 87.4361 188.507 86.5277C188.553 86.3031 188.819 86.1254 189.131 85.7232C190.286 84.5633 191.267 83.1319 191.809 81.6065C192.443 79.6319 192.37 77.741 191.108 76.0646C190.76 75.5214 190.412 74.9782 189.844 74.3881C190.202 73.7612 190.559 73.1343 190.917 72.5074C192.302 70.2245 193.248 67.8476 193.579 65.1052C193.727 63.2613 193.389 61.548 192.566 59.9655C191.569 58.1114 190.168 57.1089 188.143 56.9108C186.998 56.9005 187.044 56.676 187.044 56.676C187.356 56.2737 187.448 55.8244 187.759 55.4221C190.044 50.9869 190.524 46.4007 188.759 41.5694C187.853 39.266 186.902 37.1872 185.199 35.4168C184.064 34.2366 182.882 33.281 181.124 32.9053C180.025 32.6705 179.274 32.9788 178.952 34.5511C178.63 36.1235 177.654 42.0105 176.607 46.0067C175.468 50.4521 174.063 55.0752 171.871 59.0611C169.587 63.4964 166.229 69.8123 162.579 74.1903C159.911 77.1369 157.289 79.8589 154.1 81.9908C147.812 85.8053 144.239 86.4486 142.873 86.3913C141.948 86.4281 141.115 86.0157 140.64 84.9763C140.164 83.9369 139.642 83.1222 138.9 82.2605C135.98 78.5891 132.903 77.9315 128.742 80.3248C124.847 82.5404 121.739 85.3931 119.107 89.2853C119.015 89.7341 118.703 90.1368 118.611 90.5856ZM130.46 85.3807C130.159 84.613 130.517 83.9861 131.268 83.6777C132.019 83.3693 132.853 83.7819 133.155 84.5496C133.456 85.3174 133.099 85.9443 132.567 86.2996C131.642 86.3364 130.763 86.1485 130.46 85.3807Z" fill="#CADEF1"/>
<path d="M89.2892 228.267C89.1972 228.717 89.1053 229.165 89.0593 229.391C88.4515 233.48 87.7985 237.795 87.8964 241.802C87.7943 243.421 88.1322 245.134 88.2497 246.801C88.4957 248.963 88.7418 251.125 88.7222 253.465C88.758 254.41 88.62 255.085 88.4362 255.983C88.3442 256.432 88.2523 256.882 87.9407 257.283C87.5831 257.911 86.8774 257.994 86.2636 257.629C85.8703 257.31 85.2565 256.945 85.1285 256.448C84.5608 255.859 84.0392 255.044 83.6915 254.501C82.3464 252.104 80.9554 249.931 80.096 247.402C79.6662 246.139 79.0167 244.828 78.3671 243.517C75.0835 236.017 72.2854 228.386 70.1928 220.671C67.9722 212.46 66.6771 204.213 66.0874 195.882C66.0514 194.936 66.0615 193.766 65.8056 192.774C65.192 192.409 64.7523 192.315 64.1388 191.948C59.0923 189.698 54.0919 187.224 49.4032 184.346C47.1688 182.931 44.9803 181.292 43.0577 179.475C42.3162 178.613 41.6206 177.526 41.3648 176.534C41.063 175.766 41.2009 175.093 41.7786 174.512C42.3101 174.157 42.622 173.755 43.3274 173.671C44.5186 173.457 45.9295 173.29 47.1207 173.075C50.1165 173.011 53.0205 173.397 55.8784 174.008C61.2007 174.911 66.2671 174.82 71.5633 173.608C74.9169 172.917 77.9228 171.684 80.9745 170.226C86.061 167.796 90.4061 164.505 94.7963 160.988C96.7492 159.295 98.7021 157.602 100.829 156.181C101.891 155.47 102.954 154.759 103.972 154.274C105.255 153.61 106.309 154.07 107.224 155.203C107.572 155.746 107.873 156.514 107.735 157.188C107.597 157.861 107.46 158.535 107.102 159.162C105.845 161.941 104.148 164.626 102.278 167.04C99.4257 170.885 96.5278 174.955 93.5014 178.528C92.8783 179.333 92.7404 180.007 92.9958 180.999C94.941 190.558 97.105 200.164 99.8011 209.413C100.871 213.158 102.38 216.997 103.669 220.789C105.991 227.381 108.313 233.972 109.885 240.872C110.269 242.361 110.386 244.027 110.551 245.469C110.632 246.189 110.448 247.088 110.265 247.986C110.035 249.11 109.017 249.595 108.184 249.183C107.351 248.771 106.297 248.311 105.73 247.721C104.374 246.494 102.845 244.995 101.537 243.543C97.8295 239.234 94.4336 234.523 90.9918 230.038C90.1584 229.625 89.857 228.858 89.2892 228.267Z" fill="#CADEF1"/>
<path d="M57.832 249.68C59.4429 251.899 60.5681 254.25 61.2077 256.73C61.7193 258.715 62.277 260.476 62.0831 262.544C61.8993 263.442 62.1091 264.659 61.1838 264.697C60.4783 264.78 60.1305 264.237 60.0026 263.741C58.5296 260.847 56.2592 258.486 54.2086 256.174C53.641 255.583 53.0735 254.993 52.5058 254.403C50.6452 255.646 48.7845 256.89 46.9239 258.133C46.74 259.032 47.3076 259.622 47.6094 260.39C49.594 265.268 50.4335 270.136 50.3016 275.266C50.1997 276.885 49.8779 278.458 49.73 280.302C49.5463 281.199 49.4083 281.874 48.8307 282.454C48.2532 283.034 47.3738 282.846 47.2458 282.349C46.8981 281.807 46.7702 281.31 46.6882 280.59C46.4324 279.597 46.3964 278.652 46.1406 277.659C45.6389 274.505 44.9174 271.302 43.4444 268.409C42.667 266.602 41.4038 264.925 40.3605 263.295C40.1407 263.249 40.0129 262.753 39.9669 262.977C39.701 263.155 39.4812 263.108 39.2154 263.286C36.1176 264.968 33.1118 266.201 29.8861 267.388C29.1347 267.697 28.4291 267.78 27.5038 267.817C25.6532 267.891 24.426 267.159 23.8684 265.4C23.3107 263.639 23.2388 261.748 23.3866 259.904C23.4066 257.564 23.6465 255.271 23.8862 252.978C23.9981 250.188 24.3759 247.222 24.4877 244.432C24.5896 242.813 24.5177 240.922 24.3997 239.256C24.2458 236.644 23.3864 234.116 22.3072 231.541C21.1819 229.191 19.2952 228.319 16.9129 228.748C16.2075 228.831 15.456 229.14 14.7046 229.448C12.762 229.971 10.8193 230.494 8.87667 231.016C8.12524 231.325 5.69698 231.978 5.39518 231.21C5.09339 230.442 7.04599 228.75 7.84342 228.217C10.5934 225.992 13.5173 224.037 16.4412 222.083C21.2258 218.885 26.2761 215.51 30.585 211.272C33.7387 208.195 36.6726 205.071 39.4326 201.675C41.2573 199.486 43.3478 197.119 45.3923 194.977C45.7041 194.574 46.2817 193.995 46.8133 193.639C47.3449 193.284 47.9684 192.48 48.5821 192.845C49.1956 193.211 49.1037 193.66 49.0117 194.109C48.8278 195.008 48.644 195.906 48.4602 196.805C47.1471 200.979 45.6602 204.881 43.9075 208.961C43.4579 210.037 42.7883 211.066 42.5585 212.189C42.1548 213.04 41.971 213.939 42.0069 214.884C41.7771 216.007 42.2527 217.046 43.4799 217.778C43.8736 218.096 44.3133 218.19 44.7071 218.509C48.8281 220.796 52.9492 223.083 56.9783 225.819C60.22 227.918 63.15 230.42 65.7682 233.323C66.116 233.867 66.5097 234.185 67.0773 234.775C68.2125 235.955 68.3304 237.622 68.0087 239.194C67.7328 240.542 67.0634 241.57 66.3938 242.6C65.0088 244.883 63.0563 246.576 61.3235 248.316C59.0332 248.295 58.4096 249.099 57.832 249.68Z" fill="#CADEF1"/>
<path d="M148.16 163.714C149.25 165.118 150.293 166.748 151.336 168.378C154.906 173.36 158.209 178.519 161.559 183.455C164.167 187.529 166.73 191.827 169.291 196.126C171.158 199.337 172.979 202.774 174.095 206.295C174.396 207.062 174.652 208.054 174.734 208.775C174.816 209.497 174.898 210.218 174.76 210.891C174.658 212.51 173.595 213.221 172.056 212.892C171.176 212.704 170.563 212.339 169.73 211.927C168.329 210.924 167.147 209.968 165.966 209.013C163.476 206.605 161.032 203.973 158.541 201.566C157.012 200.067 155.529 198.343 154 196.844C153.259 195.982 152.252 195.299 151.464 194.661C151.071 194.343 150.457 193.978 149.751 194.061C149.705 194.286 149.613 194.735 149.567 194.96C149.65 195.681 149.732 196.402 149.813 197.122C151.21 203.751 152.122 210.51 152.548 217.4C152.665 219.065 152.738 220.956 152.59 222.8C152.626 223.746 152.442 224.644 152.258 225.543C151.983 226.89 151.011 227.152 149.83 226.196C149.263 225.606 148.741 224.791 148.393 224.248C146.874 221.579 145.621 218.733 144.414 215.662C141.953 209.744 139.759 203.649 137.298 197.731C135.918 194.388 134.71 191.317 133.33 187.974C133.027 187.206 132.726 186.439 132.424 185.671C131.601 184.089 129.698 179.931 128.179 177.262C127.693 177.393 127.208 177.524 126.502 177.607C122.351 178.83 118.246 179.829 113.885 179.835C112.255 179.956 110.715 179.627 109.13 179.522C107.106 179.325 105.265 178.228 103.425 177.131C103.031 176.813 102.811 176.766 102.637 176.495C102.07 175.905 102.207 175.231 102.913 175.147C103.885 174.885 104.635 174.578 105.561 174.54C107.944 174.111 110.371 173.458 112.753 173.029C114.917 172.554 116.95 171.581 119.077 170.16C127.226 165.102 134.238 158.864 140.336 151.492C142.83 148.274 145.15 144.784 147.031 141.201C148.15 139.095 149.27 136.99 150.828 134.978C151.406 134.399 151.764 133.772 152.561 133.239C153.093 132.884 153.752 133.025 153.834 133.745C153.962 134.241 154.264 135.01 154.172 135.458C154.116 136.853 154.014 138.472 153.959 139.867C153.305 144.182 152.385 148.674 151.073 152.848C150.163 156.17 149.034 159.446 147.73 162.449C148.298 163.04 148.252 163.264 148.16 163.714Z" fill="#CADEF1"/>
<path d="M16.8225 187.702C14.7059 187.954 13.0651 189.244 11.5982 190.806C10.0393 192.818 8.87421 195.147 8.32261 197.842C7.55119 200.491 7.87896 203.374 8.73834 205.902C9.46987 207.934 10.9529 209.658 12.8855 210.305C16.3111 211.505 19.3529 211.217 22.3687 208.814C25.1187 206.588 26.6416 203.632 26.4977 199.85C26.3438 197.238 26.1898 194.627 25.0646 192.276C23.4637 188.886 20.3959 187.059 16.8225 187.702ZM11.7022 199.268C11.6203 198.547 11.932 198.145 12.4637 197.789C13.0412 197.209 13.7468 197.126 14.846 197.361C13.9566 198.343 13.1132 199.1 12.004 200.036C11.8301 199.764 11.6563 199.492 11.7022 199.268ZM21.6251 197.871C21.835 199.088 21.5592 200.436 21.3294 201.559C21.2374 202.008 20.8797 202.635 20.7878 203.085C20.0723 204.338 19.055 204.824 17.736 204.542C16.6367 204.308 15.5375 204.073 14.3564 203.117C15.7313 202.004 16.7946 201.294 18.1697 200.18C19.2788 199.245 20.434 198.086 21.5891 196.926C21.7171 197.422 21.6711 197.647 21.6251 197.871ZM17.2482 194.592C16.6347 194.227 16.7266 193.777 17.0383 193.375C17.7538 192.121 18.6432 191.139 20.6677 191.337C19.2927 192.45 18.4033 193.432 17.2482 194.592Z" fill="#CADEF1"/>
<path d="M68.7586 135.732C67.7413 136.219 66.9438 136.752 66.1004 137.509C64.4596 138.799 62.9927 140.362 61.9655 142.018C59.7371 145.058 58.7818 148.605 58.9257 152.387C58.9977 154.278 59.5553 156.038 60.8184 157.715C64.1321 161.705 69.3624 163.056 74.009 160.532C74.2749 160.355 74.7606 160.224 75.0263 160.047C76.887 158.803 78.8396 157.11 79.7389 154.958C80.7302 152.356 81.5016 149.708 81.6135 146.919C81.7154 145.299 81.5975 143.633 81.2597 141.919C79.6329 136.414 73.7989 133.528 68.7586 135.732ZM63.3365 146.531C63.0347 145.763 63.6123 145.183 64.1899 144.603C65.2531 143.892 66.4903 143.454 67.9372 144.231C67.9372 144.231 67.4056 144.587 66.9199 144.717C65.509 144.884 64.4917 145.371 63.6024 146.353C63.5564 146.578 63.2446 146.98 63.3365 146.531ZM74.9163 147.129C74.5945 148.701 74.0529 150.227 73.2915 151.705C72.9337 152.332 72.4021 152.687 72.0444 153.314C71.201 154.071 70.2757 154.109 69.1765 153.874C67.6835 153.321 66.5023 152.365 65.6329 151.007C67.1819 150.165 69.0785 149.868 70.5814 149.251C72.0843 148.634 73.6333 147.792 74.9622 146.904C74.7424 146.857 74.6965 147.082 74.9163 147.129ZM75.9835 140.793C74.7004 141.457 73.4632 141.895 72.1802 142.559C71.8784 141.791 72.41 141.436 72.9417 141.081C74.0508 140.145 74.9762 140.108 75.9835 140.793Z" fill="#CADEF1"/>
<path d="M128.329 133.924C125.91 133.407 123.62 133.386 121.54 134.583C121.008 134.938 120.257 135.247 119.679 135.827C116.883 138.277 114.875 141.365 113.919 144.912C113.193 147.335 113.128 149.9 113.813 152.156C114.581 155.134 116.503 156.951 119.361 157.561C123.492 158.678 127.378 157.633 130.531 154.555C131.998 152.993 133.466 151.431 133.924 149.185C134.834 145.863 134.818 142.577 133.877 139.329C132.797 136.753 131.141 134.759 128.329 133.924ZM117.181 144.67C117.896 143.417 118.913 142.93 120.371 142.538C120.406 143.484 118.234 145.13 117.125 146.065C116.905 146.018 117.135 144.895 117.181 144.67ZM127.764 143.415C127.881 145.081 127.513 146.878 126.752 148.356C125.633 150.461 124.615 150.947 122.371 150.702C121.272 150.467 120.658 150.102 119.477 149.146C120.806 148.258 122.355 147.417 123.73 146.304C125.059 145.416 126.214 144.256 127.589 143.143C127.635 142.918 127.764 143.415 127.764 143.415ZM127.455 138.191C126.264 138.406 125.247 138.891 124.623 139.696C124.357 139.874 124.311 140.098 124.092 140.051L123.872 140.004L123.698 139.733C123.698 139.733 123.744 139.509 123.79 139.283C124.24 138.207 125.257 137.721 126.275 137.236C127.245 136.974 128.17 136.938 129.178 137.621C128.6 138.201 127.941 138.06 127.455 138.191Z" fill="#CADEF1"/>
<path d="M616.843 364.876C616.889 364.651 616.889 364.651 617.155 364.474C617.2 364.25 617.466 364.071 617.558 363.622C618.182 362.818 618.586 361.966 619.209 361.162C619.475 360.984 619.521 360.759 619.787 360.582C611.724 360.735 601.024 360.325 595.61 359.871C593.366 359.627 591.295 359.653 589.27 359.455C589.05 359.408 588.345 359.492 588.427 360.213C588.279 362.057 588.443 363.498 588.515 365.389C588.643 365.885 588.863 365.932 589.302 366.026C589.962 366.167 599.901 368.056 609.666 369.673C611.061 366.22 614.24 365.258 616.843 364.876Z" fill="#CADEF1"/>
<path d="M729.935 414.354C729.275 414.214 728.881 413.895 728.534 413.352C727.664 411.994 726.794 410.636 725.879 409.503C723.481 406.646 720.496 405.54 716.794 405.687C716.088 405.77 715.383 405.854 714.457 405.89C713.149 404.439 711.885 402.763 709.953 402.116C708.02 401.468 706.262 401.093 704.328 400.445C703.25 397.87 701.905 395.473 700.825 392.897C699.7 390.547 698.217 388.824 696.203 387.456C695.589 387.091 694.975 386.725 694.628 386.182C694.499 385.686 694.371 385.189 694.463 384.74C694.346 383.074 694.008 381.36 693.89 379.695C693.214 376.268 692.053 372.972 689.563 370.564C688.428 369.384 687.201 368.653 686.331 367.296C685.681 365.985 685.564 364.318 685.18 362.83C684.157 358.86 681.85 355.554 678.343 353.633C677.509 353.221 677.207 352.453 676.639 351.862C674.645 348.154 671.889 345.924 668.024 344.63C666.751 344.123 665.524 343.392 664.562 342.484C663.601 341.575 662.64 340.666 661.413 339.935C659.444 338.343 656.898 337.329 654.259 336.766C651.402 336.156 648.707 336.987 647.67 339.813C647.624 340.037 647.486 340.711 647.221 340.889C646.735 341.02 646.469 341.197 646.03 341.103C642.63 342.018 639.404 343.205 636.654 345.431C632.887 348.142 629.861 351.716 627.229 355.608C625.624 357.844 623.835 360.978 621.745 363.345C620.856 364.327 620.406 365.403 619.736 366.433C619.425 366.835 619.067 367.462 618.756 367.864C615.32 367.833 612.579 368.889 612.238 372.802C610.157 373.998 608.077 375.194 606.262 376.214C604.182 377.411 602.321 378.654 600.46 379.897C598.6 381.141 596.831 381.935 594.924 383.404C594.658 383.581 594.612 383.806 594.74 384.302C595.39 385.613 595.82 386.878 596.689 388.235C596.863 388.507 597.303 388.601 597.568 388.423C599.337 387.628 601.372 386.657 603.141 385.862C605.175 384.89 607.43 383.965 609.418 383.217C611.452 382.246 613.661 381.546 615.916 380.62C617.884 382.213 620.256 382.954 622.813 382.797C623.033 382.844 623.472 382.938 623.912 383.032C625.671 383.408 626.192 384.222 625.87 385.795C625.539 388.537 625.472 391.101 625.627 393.713C625.898 397.991 627.315 402.279 628.778 406.343C629.812 409.143 631.157 411.54 632.942 414.031C635.862 417.702 639.093 420.972 642.949 423.436C643.342 423.755 643.782 423.849 644.176 424.168C643.424 424.475 642.673 424.784 642.141 425.139C635.552 428.186 628.487 430.194 621.422 432.201C619.214 432.901 617.271 433.424 615.328 433.947C615.063 434.124 614.577 434.255 614.659 434.976C615.217 436.736 615.82 438.271 616.643 439.854C616.817 440.126 617.257 440.22 617.697 440.314C618.622 440.277 640.548 436.286 650.609 434.215C652.286 433.871 652.679 434.189 653.283 435.725C654.015 437.756 655.278 439.433 657.165 440.305C657.998 440.717 658.346 441.261 658.381 442.206C658.454 444.097 658.479 446.213 658.552 448.104C658.541 449.273 658.266 450.621 657.551 451.875C655.122 452.528 652.832 452.508 650.496 452.712C648.205 452.692 645.915 452.672 643.578 452.875C643.358 452.828 643.093 453.007 643.001 453.455C642.725 454.804 642.807 455.524 642.531 456.872C642.393 457.545 643.053 457.686 643.272 457.733C645.206 458.381 647.138 459.028 649.117 459.451C655.666 461.084 658.13 461.376 663.196 461.286C665.047 461.213 666.642 460.147 667.623 458.715C668.293 457.686 669.008 456.433 669.458 455.356C669.999 453.831 670.587 452.081 671.129 450.556C671.267 449.881 671.578 449.48 671.716 448.805C672.907 448.591 673.879 448.33 675.116 447.89C675.51 448.21 675.903 448.528 676.297 448.846C678.22 450.663 680.72 451.901 683.358 452.465C686.216 453.075 689.166 453.236 691.604 451.413C692.658 451.872 693.491 452.285 694.371 452.473C697.136 453.533 700.086 453.694 702.443 451.15C702.443 451.15 702.489 450.925 702.708 450.972C703.818 450.036 705.009 449.822 706.328 450.104C707.647 450.386 708.7 450.845 709.927 451.576C711.722 452.897 713.47 454.443 715.219 455.989C717.316 458.077 719.826 458.145 722.3 457.267C725.26 456.258 727.039 454.294 727.636 451.374C728.556 446.881 729.209 442.566 729.908 438.028C730.092 437.129 730.276 436.231 730.24 435.285C730.946 435.201 731.258 434.799 731.744 434.669C733.952 433.968 735.199 432.358 734.999 429.972C734.963 429.026 735.321 428.399 735.679 427.773C737.477 423.468 734.817 415.163 729.935 414.354ZM723.641 439.502C722.797 440.26 721.525 439.753 720.829 438.666C720.134 437.581 720.144 436.41 720.987 435.652C721.83 434.895 722.929 435.13 723.625 436.216C724.541 437.349 724.439 438.969 723.641 439.502ZM724.463 431.003C723.491 431.264 722.831 431.123 722.09 430.262C721.523 429.672 721.221 428.904 720.699 428.089C720.224 427.05 719.748 426.011 719.007 425.149C717.57 423.2 715.591 422.778 713.602 423.526C711.394 424.226 710.622 426.874 712.105 428.597C712.499 428.917 713.113 429.282 713.552 429.376C713.992 429.47 714.697 429.386 715.449 429.078C715.439 430.247 715.035 431.099 714.192 431.857C712.194 433.774 709.198 433.837 707.101 431.749C703.383 428.61 702.114 422.478 704.619 418.089C708.783 410.071 719.76 409.133 725.16 416.383C727.338 419.192 728.454 422.712 728.158 426.4C728.184 428.516 726.625 430.527 724.463 431.003Z" fill="#CADEF1"/>
<path d="M699.101 688.391C698.442 688.25 697.782 688.109 697.123 687.968C695.804 687.686 694.531 687.18 692.946 687.075C690.701 686.83 688.549 686.136 686.176 685.395C683.804 684.654 681.386 684.137 678.967 683.621C677.429 683.292 676.109 683.01 674.571 682.681C672.152 682.165 669.734 681.648 667.316 681.131C666.656 680.99 665.997 680.849 665.383 680.484C664.33 680.025 664.074 679.032 664.478 678.181C664.927 677.105 665.643 675.851 666.532 674.869C667.422 673.887 668.393 673.625 669.446 674.084C670.939 674.638 672.478 674.967 673.971 675.52C678.542 676.731 683.112 677.942 687.637 679.377C689.396 679.753 691.329 680.4 693.087 680.776C695.506 681.292 697.878 682.033 700.214 681.83C700.92 681.745 701.313 682.065 701.615 682.832C701.872 683.824 701.861 684.995 701.458 685.846C701.099 686.473 700.916 687.371 700.338 687.951C700.292 688.176 699.76 688.532 699.101 688.391Z" fill="#CADEF1"/>
<path d="M707.216 718.256C706.996 718.209 706.776 718.162 706.556 718.115C705.237 717.833 704.138 717.599 702.865 717.092C700.493 716.351 698.12 715.609 695.968 714.915C693.596 714.174 691.269 713.209 689.163 712.289C687.716 711.512 686.222 710.958 684.556 710.133C683.943 709.768 683.502 709.674 682.935 709.084C682.368 708.493 681.8 707.904 681.984 707.005C682.214 705.882 682.397 704.983 682.627 703.86C682.811 702.962 683.562 702.654 684.396 703.066C684.836 703.16 685.449 703.525 685.889 703.619C691.687 705.561 697.53 707.278 703.237 709.669C703.896 709.81 704.555 709.951 704.949 710.27C706.836 711.142 708.768 711.789 710.839 711.762C711.059 711.809 711.279 711.856 711.718 711.95C712.992 712.457 713.641 713.768 712.532 714.703C711.065 716.265 709.25 717.284 707.481 718.079C707.656 718.35 707.435 718.303 707.216 718.256Z" fill="#CADEF1"/>
<path d="M703.214 676.139C703.168 676.365 703.342 676.636 703.25 677.085C703.24 678.255 702.708 678.61 701.563 678.6C701.123 678.506 700.638 678.637 700.198 678.543C693.776 677.406 687.355 676.268 680.934 675.131C678.076 674.521 675.483 673.733 672.672 672.898C672.012 672.757 671.398 672.39 671.005 672.072C670.217 671.435 669.961 670.443 670.805 669.685C671.383 669.105 671.914 668.75 672.271 668.123C672.804 667.767 673.381 667.188 673.913 666.832C674.536 666.028 675.242 665.944 676.075 666.357C676.735 666.498 677.348 666.863 677.788 666.957C679.061 667.463 680.554 668.017 681.873 668.299C685.17 669.003 688.202 669.885 691.454 670.814C692.993 671.143 694.531 671.472 696.071 671.801C697.61 672.129 698.928 672.411 700.202 672.918C700.816 673.283 701.429 673.648 702.043 674.013C703.05 674.698 703.05 674.698 703.214 676.139Z" fill="#CADEF1"/>
<path d="M715.117 711.036C714.678 710.942 714.678 710.942 714.238 710.848C708.394 709.131 702.55 707.413 697.018 705.294C694.472 704.281 692.1 703.54 689.507 702.752C688.015 702.199 686.741 701.692 685.515 700.961C684.287 700.23 684.159 699.734 684.435 698.386C684.619 697.488 684.803 696.589 685.207 695.738C685.61 694.886 686.096 694.756 686.976 694.944C687.195 694.991 687.195 694.991 687.415 695.038C690.089 696.546 692.993 696.932 695.713 698.217C696.766 698.676 697.82 699.135 698.873 699.594C701.767 701.15 704.707 702.482 707.959 703.411C709.671 704.011 711.476 704.163 713.235 704.538C714.554 704.82 715.653 705.055 716.972 705.337C717.412 705.431 718.025 705.796 718.373 706.339C718.767 706.658 718.895 707.154 718.757 707.828C718.261 709.128 717.858 709.98 716.529 710.869C715.869 710.728 715.603 710.905 715.117 711.036Z" fill="#CADEF1"/>
<path d="M698.106 722.406C692.196 723.254 686.608 722.528 680.846 721.532C679.307 721.204 678.52 720.566 678.402 718.9C678.202 716.513 678.662 714.267 679.735 712.387C680.185 711.311 681.156 711.049 682.475 711.331C683.135 711.472 683.794 711.612 684.188 711.931C685.241 712.39 686.295 712.85 687.348 713.309C691.469 715.596 695.948 717.257 700.253 718.645C701.086 719.057 702.231 719.067 703.111 719.255C703.55 719.349 703.99 719.443 704.383 719.762C704.997 720.127 704.987 721.298 704.236 721.606C703.969 721.783 703.484 721.914 703.265 721.867C701.414 721.94 699.737 722.286 698.106 722.406Z" fill="#CADEF1"/>
<path d="M719.108 676.957C719.237 677.453 719.053 678.352 718.65 679.203C718.098 681.899 717.281 684.772 716.729 687.467C715.902 691.51 714.414 695.413 712.927 699.315C712.79 699.989 712.432 700.615 711.854 701.195C711.185 702.224 709.948 702.664 708.894 702.204C708.061 701.792 707.146 700.659 707.687 699.133C708.183 697.833 708.459 696.485 708.734 695.137C709.7 690.42 710.665 685.702 711.85 681.033C712.218 679.236 712.805 677.486 713.393 675.736C713.485 675.287 713.577 674.838 713.842 674.66C714.87 673.003 716.767 672.706 718.03 674.382C718.689 674.523 718.945 675.515 719.108 676.957Z" fill="#CADEF1"/>
<path d="M684.571 687.631C684.525 687.855 684.48 688.08 684.434 688.305C682.66 694.725 680.668 701.098 678.942 707.293C678.216 709.717 677.93 712.235 677.425 714.706C677.241 715.604 677.011 716.727 676.607 717.579C676.203 718.43 675.233 718.691 674.445 718.054C673.658 717.418 673.136 716.603 672.348 715.965C671.781 715.375 671.699 714.654 671.837 713.98C671.883 713.756 671.883 713.756 671.929 713.531C674.105 706.26 676.062 698.941 678.192 691.894C678.422 690.771 678.917 689.471 679.147 688.347C679.239 687.898 679.285 687.674 679.377 687.224C679.918 685.699 680.716 685.166 682.429 685.767C682.869 685.861 683.701 686.273 683.922 686.32C684.535 686.685 684.663 687.182 684.571 687.631Z" fill="#CADEF1"/>
<path d="M688.365 661.246C691.013 660.64 693.651 661.203 696.509 661.813C698.488 662.236 700.42 662.884 702.399 663.306C703.938 663.634 705.027 665.04 705.676 666.351C706.372 667.437 706.096 668.785 705.033 669.495C704.235 670.028 703.576 669.887 702.916 669.747C701.158 669.371 699.445 668.771 697.686 668.395C694.168 667.643 690.385 667.069 686.73 666.992C684.925 666.841 682.946 666.419 681.188 666.043C680.748 665.949 680.308 665.855 679.915 665.536C679.301 665.17 679.219 664.449 679.751 664.095C680.594 663.337 681.392 662.804 682.363 662.543C684.131 661.748 686.248 661.497 688.365 661.246Z" fill="#CADEF1"/>
<path d="M700.964 697.228C701.01 697.004 701.148 696.33 701.24 695.881C702.45 693.326 702.737 690.808 703.288 688.113C704.243 684.566 704.979 680.972 705.714 677.378C705.852 676.704 706.036 675.806 706.174 675.132C706.542 673.335 706.864 671.762 707.451 670.012C707.589 669.339 707.947 668.712 708.525 668.132C709.726 666.747 712.098 667.489 712.435 669.201C712.517 669.922 712.6 670.644 712.241 671.271C711.286 674.817 710.331 678.364 709.202 681.639C707.843 686.038 706.877 690.755 705.959 695.248C705.683 696.595 705.453 697.718 704.344 698.654C703.766 699.233 703.015 699.542 702.181 699.129C701.741 699.035 701.174 698.445 700.964 697.228Z" fill="#CADEF1"/>
<path d="M662.179 689.412C662.189 688.242 662.199 687.071 662.475 685.724C662.438 684.778 662.842 683.927 663.246 683.075C663.869 682.271 664.621 681.963 665.5 682.151C666.993 682.704 668.266 683.21 669.76 683.763C670.419 683.904 670.767 684.448 670.629 685.121C670.756 685.618 670.619 686.292 670.527 686.741C670.389 687.415 670.251 688.088 670.113 688.762C668.8 692.936 667.487 697.11 666.22 701.059C666.082 701.733 665.944 702.407 665.806 703.081C665.714 703.53 665.668 703.755 665.576 704.204C665.484 704.653 664.953 705.008 664.513 704.914C664.074 704.82 663.854 704.773 663.68 704.502C663.506 704.231 663.332 703.958 663.424 703.51C662.365 698.594 662.287 692.248 662.179 689.412Z" fill="#CADEF1"/>
<path d="M674.643 684.572C674.643 684.572 675.082 684.666 675.302 684.713C677.06 685.089 677.409 685.632 676.821 687.382C675.59 692.276 674.185 696.899 672.954 701.794C672.091 704.892 671.667 708.083 670.803 711.181C670.711 711.63 670.354 712.257 670.042 712.66C669.685 713.286 668.759 713.324 668.192 712.733C667.01 711.777 666.406 710.242 666.243 708.801C666.115 708.304 666.427 707.902 666.473 707.677C667.382 704.355 668.511 701.079 669.375 697.982C669.512 697.308 669.65 696.634 669.742 696.185C670.606 693.087 671.423 690.214 672.067 687.069C672.159 686.62 672.251 686.171 672.562 685.768C673.185 684.964 673.717 684.609 674.643 684.572Z" fill="#CADEF1"/>
<path d="M722.491 688.464C722.772 691.572 722.661 694.361 722.017 697.506C721.833 698.404 721.649 699.303 721.466 700.201C721.328 700.875 721.144 701.774 721.006 702.447C720.822 703.345 720.024 703.879 719.273 704.187C717.816 704.579 716.543 704.073 715.581 703.164C715.188 702.845 715.06 702.349 715.152 701.9C715.07 701.18 715.208 700.506 715.519 700.103C716.475 696.556 717.604 693.281 718.559 689.734C718.835 688.386 719.111 687.038 719.387 685.691C719.479 685.241 719.571 684.793 719.882 684.39C720.24 683.763 720.945 683.679 721.34 683.998C721.952 684.364 722.301 684.907 722.382 685.628C722.199 686.526 722.234 687.472 722.491 688.464Z" fill="#CADEF1"/>
<path d="M700.692 692.95C700.682 694.121 700.013 695.149 699.169 695.907C698.904 696.084 698.418 696.215 697.978 696.121C695.606 695.38 692.968 694.816 690.595 694.075C689.542 693.616 688.489 693.157 687.701 692.519C686.521 691.564 686.402 689.898 687.558 688.737C688.135 688.158 688.575 688.252 689.235 688.393C690.993 688.769 692.706 689.369 694.465 689.745C695.957 690.298 697.451 690.851 698.99 691.18C699.209 691.227 699.429 691.274 699.869 691.368C700.308 691.462 700.657 692.004 700.692 692.95Z" fill="#CADEF1"/>
<path d="M651.768 216.129C651.619 215.639 651.308 215.308 650.997 214.977C646.696 207.744 638.607 207.087 630.693 213.574C626.979 216.579 626.264 220.459 627.455 224.379C628.654 227.975 630.662 230.777 633.792 233.116C634.102 233.446 634.576 233.618 634.886 233.95C634.88 234.274 634.556 234.592 634.393 234.751C630.115 242.126 634.363 251.954 643.073 253.274C643.863 253.453 644.972 253.638 645.924 253.659C649.58 253.574 652.938 252.509 655.382 249.477C656.192 248.682 656.684 247.881 657.184 246.756C658.007 245.313 658.358 243.697 658.228 242.234C658.079 241.743 658.248 241.26 658.262 240.612C658.741 240.459 658.903 240.3 659.383 240.148C666.907 237.224 669.963 227.55 664.54 220.781C663.763 219.953 662.985 219.126 662.207 218.298C660.491 216.801 658.599 216.111 656.376 216.064C655.423 216.044 654.308 216.183 653.194 216.322C652.565 215.984 652.247 215.977 651.768 216.129Z" fill="#CADEF1"/>
<path d="M678.962 238.127C680.401 237.671 681.839 237.214 683.285 236.433C685.852 235.189 687.817 232.309 687.856 230.363C687.895 228.415 687.435 227.594 686.185 226.594C685.562 225.932 684.616 225.588 683.671 225.242C679.251 223.851 675.576 224.909 672.024 227.756C671.375 228.391 670.882 229.192 670.552 229.834C670.052 230.96 670.026 232.258 670.318 233.562C671.211 236.503 673.084 238.165 676.259 238.232C677.368 238.418 678.164 238.273 678.962 238.127Z" fill="#CADEF1"/>
<path d="M676.932 220.719C678.688 220.269 680.296 219.33 681.916 217.74C682.241 217.423 682.565 217.106 682.734 216.622C683.875 215.185 683.752 213.398 682.833 211.755C681.304 208.802 678.783 207.774 675.762 207.873C673.378 207.985 671.142 208.587 669.054 209.678C666.326 211.081 664.983 214.624 666.195 217.571C666.796 219.206 667.891 220.041 669.473 220.399C671.838 221.261 674.216 221.473 676.932 220.719Z" fill="#CADEF1"/>
<path d="M662.777 245.089C661.324 246.194 660.346 247.472 660.151 249.253C659.638 251.028 660.241 252.663 661.647 253.829C662.735 254.988 664.154 255.505 665.58 255.698C667.479 256.062 669.391 255.778 671.31 255.17C673.073 254.396 675.16 253.303 676.625 251.549C678.09 249.794 677.689 246.053 675.965 244.881C673.776 243.212 671.41 242.35 669.336 242.793C667.107 243.071 664.229 243.983 662.777 245.089Z" fill="#CADEF1"/>
<path d="M659.569 199.577C657.812 200.027 656.205 200.967 654.753 202.073C654.105 202.708 653.294 203.503 652.957 204.469C652.134 205.912 652.561 208.355 654.284 209.529C655.069 210.031 655.697 210.37 656.488 210.549C657.596 210.734 658.549 210.754 659.501 210.774C661.251 210.649 663.014 209.875 664.459 209.094C665.263 208.624 665.749 208.147 666.073 207.83C667.687 206.565 668.045 204.625 667.767 202.672C667.637 201.209 666.704 200.215 665.441 199.863C664.022 199.347 662.434 199.314 661.001 199.445C660.528 199.273 660.049 199.425 659.569 199.577Z" fill="#CADEF1"/>
<path d="M556.327 206.971C560.657 204.953 564.209 202.106 567.146 198.273C567.477 197.631 567.963 197.154 568.293 196.512C569.62 201.571 572.231 206.009 575.815 209.492C576.903 210.652 578.153 211.652 579.721 212.659C586.304 217.018 594.528 218.815 601.71 217.181C601.534 217.99 601.204 218.631 601.19 219.28C600.665 221.704 600.457 224.134 600.405 226.729C599.603 242.78 598.166 258.817 595.304 274.662C593.142 287.276 588.615 299.028 582.196 310.091C578.578 316.181 574.649 321.941 570.091 327.363C569.443 327.998 568.633 328.793 568.775 329.607C568.769 329.932 569.087 329.939 569.404 329.945C570.357 329.966 571.309 329.986 572.424 329.847C583.895 328.142 593.534 322.827 599.622 312.406C602.424 307.434 604.597 302.124 605.822 296.47C606.524 293.238 607.542 290.014 608.243 286.784C608.878 286.797 609.513 286.81 610.148 286.824C610.648 285.698 610.829 284.566 611.166 283.599C612.866 278.117 616.756 274.304 620.8 270.657C623.063 268.757 625.637 267.188 628.358 266.109C632.202 264.568 636.006 264.973 640.108 266.358C636.711 269.37 631.837 274.785 630.481 278.976C630.137 280.267 629.942 282.049 632.003 282.255C634.23 289.93 632.862 294.769 632.193 296.378C630.851 299.92 629.198 303.132 626.915 306.005C626.591 306.322 625.936 307.282 626.085 307.773C627.531 306.992 628.659 306.204 629.942 305.582C630.713 306.734 630.051 308.018 629.714 308.985C628.722 310.912 627.892 312.679 626.9 314.606C623.937 319.737 620.19 324.364 615.199 327.667C614.874 327.985 614.394 328.137 614.388 328.462C614.848 329.283 615.969 328.819 615.625 330.111C614.342 330.733 612.897 331.514 611.295 332.129C609.688 333.069 607.925 333.843 606.318 334.783C603.589 336.186 601.015 337.755 598.125 339.316C593.302 342.136 588.046 342.836 582.809 342.563C574.397 342.223 566.18 340.102 558.961 335.73C554.723 333.206 550.81 330.364 547.227 326.88C542.549 322.561 537.541 318.885 532.214 315.202C526.415 311.346 521.102 307.013 516.275 302.205C513.632 299.391 511.306 296.582 509.628 293.138C508.863 291.662 508.728 290.522 510.018 289.576C512.442 287.517 515.813 285.803 519.085 288.956C520.017 289.95 521.268 290.95 522.201 291.943C523.167 291.314 523.348 290.182 523.686 289.216C524.516 287.448 525.035 285.349 526.021 283.747C528.484 279.742 531.415 276.233 534.656 273.056C536.439 271.307 538.371 270.051 540.776 268.965C544.463 267.258 548.112 267.497 551.566 269.517C554.236 271.035 556.581 272.87 558.278 275.34C559.049 276.492 559.82 277.645 560.591 278.797C561.071 278.645 560.929 277.831 560.617 277.499C558.972 272.433 555.559 268.466 551.165 265.776C545.987 262.583 540.907 262.475 535.922 265.454C532.707 267.334 529.958 269.71 527.831 272.749C525.55 275.622 523.579 278.826 521.453 281.865C521.121 282.507 520.474 283.143 519.981 283.944C515.561 282.552 511.737 283.12 507.724 285.145C507.083 285.456 506.28 285.926 505.638 286.237C504.348 287.184 503.24 286.999 501.982 286.323C499.786 284.978 493.086 278.507 492.011 276.698C491.085 275.381 491.915 273.612 492.894 272.335C494.028 271.223 495.473 270.442 496.446 269.489C497.573 268.701 498.689 268.562 499.952 268.914C500.743 269.093 501.689 269.437 502.311 270.099C503.879 271.106 505.305 271.299 507.061 270.849C508.817 270.399 510.412 270.109 512.175 269.334C514.1 268.401 516.031 267.144 517.652 265.555C523.804 259.842 529.023 253.136 534.087 246.264C534.903 245.146 535.41 243.696 535.598 242.239C536.137 239.167 536.831 236.26 537.369 233.188C537.531 233.028 537.545 232.379 537.22 232.697C536.261 233.001 535.62 233.313 534.18 233.769C536.496 229.273 538.48 225.42 541.099 221.581C541.423 221.263 541.748 220.945 542.071 220.628C542.396 220.309 543.037 219.999 542.733 219.343C542.585 218.853 542.111 218.681 541.645 218.184C543.771 215.145 546.824 213.425 549.249 211.366C549.106 210.551 548.957 210.061 548.808 209.571C551.524 208.818 553.922 208.056 556.327 206.971Z" fill="#CADEF1"/>
<path d="M570.888 146.903C572.469 147.261 573.888 147.778 575.145 148.454C579.389 150.654 583.633 152.853 587.715 155.211C589.284 156.218 590.71 156.411 592.628 155.803C597.269 154.115 601.702 154.858 605.939 157.382C609.393 159.403 611.875 162.377 613.869 165.827C614.485 166.814 614.945 167.635 615.56 168.622C616.52 168.317 617.161 168.007 617.958 167.861C619.398 167.404 620.661 167.756 621.756 168.591C623.467 170.412 624.393 171.73 624.988 173.69C625.72 176.789 626.134 179.881 626.865 182.98C627.157 184.285 626.658 185.411 625.84 186.529C625.186 187.49 624.214 188.443 623.247 189.072C617.939 192.367 612.041 193.379 605.696 192.921C604.271 192.728 602.852 192.211 602.249 190.576C601.951 189.595 603.248 188.325 603.903 187.364C604.72 186.246 605.854 185.133 606.671 184.015C608.304 181.777 609.939 179.54 611.573 177.302C611.897 176.984 612.552 176.024 611.767 175.52C611.145 174.858 609.375 175.957 608.235 177.394C606.115 180.108 602.685 184.742 600.727 187.297C600.234 188.098 599.742 188.899 599.411 189.541C598.905 190.991 599.183 192.945 600.589 194.11C602.468 195.449 606.104 196.337 610.88 195.789C612.312 195.657 613.084 196.809 612.578 198.259C612.24 199.226 612.071 199.709 611.734 200.676C610.243 203.728 608.785 205.158 606.509 207.707C606.023 208.184 605.692 208.826 605.206 209.302C598.309 212.565 589.268 211.887 582.685 207.528C577.042 203.838 572.389 198.221 571.251 191.705C572.068 190.587 572.891 189.143 573.708 188.024C575.51 185.304 575.531 184.33 573.198 181.846C569.622 178.037 560.784 167.301 561.376 161.634C561.941 157.263 564.295 150.821 565.436 149.384C567.057 147.796 568.671 146.532 570.888 146.903ZM590.02 166.946C590.959 167.615 591.743 168.118 592.527 168.622C593.94 169.463 594.744 168.993 594.939 167.212C595.289 165.597 595.16 164.133 594.713 162.663C591.531 162.92 590.565 163.549 590.02 166.946Z" fill="#CADEF1"/>
<path d="M408.313 101.613C409.977 119.85 426.877 123.152 438.587 129.859C449.201 136.044 458.457 145.108 459.925 149.051C460.689 144.855 467.367 134.354 477.315 126.07C487.589 117.471 503.579 109.055 501.444 90.6418C497.862 57.2461 462.847 54.0116 453.501 84.0699C439.378 57.6415 405.377 67.9142 408.313 101.613Z" fill="#CADEF1"/>
<path d="M508.936 136.338C499.928 139.946 500.908 149.392 499.419 156.488C497.949 162.934 494.893 169.33 493.102 170.734C495.334 170.481 501.634 172.306 507.392 176.225C513.304 180.311 520.079 187.347 528.934 183.573C545.201 176.465 541.489 157.676 524.816 157.303C535.652 145.962 525.347 129.722 508.936 136.338Z" fill="#CADEF1"/>
<path d="M396.488 207.082C395.556 206.403 395.065 206.874 394.707 208.161C394.127 211.552 393.729 214.136 393.312 217.37C393.088 219.473 393.018 221.744 392.795 223.847C392.765 224.82 392.745 225.469 392.715 226.442C392.799 228.88 393.2 231.328 394.083 233.629C394.975 235.606 395.868 237.582 397.569 239.098C399.271 240.614 401.8 241.02 403.879 240.6C406.111 240.347 408.229 238.629 408.587 237.341C408.79 235.887 408.022 235.05 407.089 234.371C406.157 233.692 405.224 233.012 404.292 232.333C402.581 231.142 401.668 229.814 402.056 227.554C402.453 224.969 402.726 221.244 405.545 212.242C405.729 211.437 405.759 210.464 404.346 209.931C402.604 209.713 398.671 208.451 396.488 207.082Z" fill="#CADEF1"/>
<path d="M366.222 225.105C368.782 224.538 369.322 222.444 368.604 219.986C368.163 218.835 367.721 217.685 367.28 216.535C366.675 215.541 366.223 214.715 365.782 213.564C364.284 210.594 362.941 207.791 362.252 204.359C361.84 202.236 361.86 201.587 363.036 199.514C364.039 197.924 365.031 196.656 366.648 195.734C367.129 195.587 367.938 195.126 367.804 194.31C367.814 193.986 367.025 193.798 366.708 193.788C358.791 192.884 354.491 193.234 352.575 193.496C351.142 193.613 351.102 194.911 351.389 195.893C351.831 197.044 353.238 202.934 353.958 205.392C354.225 207.024 354.646 208.823 355.231 210.466C355.653 212.265 356.074 214.064 356.813 215.874C357.531 218.332 359.174 221.794 360.413 222.808C361.48 224.303 363.498 225.829 366.222 225.105Z" fill="#CADEF1"/>
<path d="M445.782 200.709C441.785 196.36 441.042 189.517 442.972 183.573C444.71 178.758 447.706 174.309 452.211 172.505C454.106 172.891 456.318 173.287 458.377 173.515C460.118 173.733 462.176 173.962 463.927 173.856C465.832 173.917 467.757 173.329 469.672 173.066C471.269 172.792 472.876 172.194 474.474 171.921C474.955 171.774 475.59 171.794 476.061 171.972C476.85 172.16 476.84 172.484 476.503 173.123C475.664 174.557 474.672 175.824 473.67 177.415C473.342 177.729 473.332 178.053 473.793 178.555C476.12 180.416 478.108 182.915 479.616 185.561C480.364 187.046 480.489 188.187 480.131 189.474C479.774 190.761 480.379 191.755 480.667 192.737C481.097 194.213 482.442 197.016 482.247 198.146C482.054 199.276 481.697 200.563 480.868 201.673C479.886 202.616 478.893 203.882 477.911 204.825C476.447 205.915 474.696 206.021 472.792 205.959C471.839 205.929 470.733 205.731 469.8 205.052C463.551 201.604 457.241 200.103 450.247 200.203C448.66 200.152 447.226 200.268 445.782 200.709ZM474.079 189.929C475.359 189.645 476.044 188.044 476.247 186.589C475.151 186.067 473.728 185.859 473.063 186.811C472.234 187.921 472.829 189.239 474.079 189.929Z" fill="#CADEF1"/>
<path d="M285.528 79.6519C286.847 78.0708 289.799 80.276 291.519 81.143C293.231 82.3344 295.106 83.3686 296.817 84.56C299.46 86.4305 302.258 88.4683 304.902 90.3393C307.853 92.5442 310.323 94.8961 312.783 97.5725C314.781 99.7479 316.289 102.394 317.633 105.196C318.238 106.19 318.525 107.173 318.967 108.324C319.264 108.983 319.562 109.642 319.849 110.625C320.291 111.775 320.732 112.926 321.327 114.244C321.768 115.395 322.22 116.221 322.661 117.371C323.41 118.856 323.841 120.332 324.59 121.816C325.185 123.134 325.944 124.295 326.549 125.289C327.615 126.784 328.364 128.269 329.594 129.607C330.978 131.113 332.371 132.294 333.755 133.8C336.532 136.486 339.984 137.896 343.437 139.305C345.005 140.005 349.89 141.298 350.843 141.329C352.584 141.547 354.171 141.598 356.076 141.659C358.934 141.75 361.954 141.685 364.975 141.62C367.515 141.702 370.219 141.626 372.758 141.708C376.732 141.673 380.348 142.926 384.127 144.021C388.061 145.284 391.667 146.86 395.59 148.447C397.158 149.146 398.879 150.014 400.283 150.87C402.158 151.905 403.879 152.772 405.754 153.806C407.475 154.673 409.032 155.697 410.754 156.564C412.628 157.598 414.339 158.79 416.061 159.656C418.561 161.036 421.071 162.09 423.417 163.301C425.609 164.346 427.801 165.391 429.84 166.268C434.87 168.053 439.736 169.995 444.949 170.974C445.738 171.162 446.209 171.339 446.998 171.526C443.272 173.843 440.459 177.486 438.895 181.819C436.628 188.402 438.61 196.258 443.059 201.433C443.059 201.433 443.059 201.433 442.896 201.591C441.124 202.346 439.671 203.111 438.197 204.525C436.243 206.085 435.067 208.158 434.208 210.241C433.697 211.361 433.503 212.491 433.31 213.621C433.107 215.076 432.902 216.531 433.016 217.995C433.284 219.627 433.705 221.427 434.454 222.911C435.049 224.229 435.644 225.548 436.239 226.866C436.988 228.35 437.737 229.836 438.332 231.154C438.937 232.147 439.225 233.13 439.829 234.124C440.578 235.609 441.337 236.77 442.25 238.097C442.855 239.091 443.296 240.241 444.054 241.402C444.649 242.72 445.562 244.048 446.157 245.366C446.752 246.684 447.338 248.326 447.451 249.791C447.575 250.931 447.391 251.737 446.89 252.532C446.062 253.642 443.349 254.042 442.262 253.196C440.551 252.004 439.177 250.174 438.438 248.365C437.402 245.897 436.53 243.272 435.657 240.646C434.332 237.194 430.797 233.346 429.259 231.674C427.875 230.168 426.174 228.653 424.954 226.99C421.899 222.996 418.135 216.219 417.376 215.058C416.31 213.563 415.08 212.224 413.686 211.043C412.139 209.695 410.254 208.985 408.369 208.275C405.849 207.545 403.34 206.49 400.839 205.111C398.493 203.899 396.321 202.207 394.302 200.68C390.429 197.472 385.89 195.215 381.014 193.598C374.407 191.438 367.289 190.397 362.854 189.93C358.737 189.474 345.854 189.872 343.94 190.135C341.226 190.535 338.974 191.437 336.558 192.495C335.268 193.103 334.133 193.878 332.996 194.654C331.533 195.743 330.54 197.011 329.856 198.612C329.518 199.25 329.335 200.057 329.151 200.862C328.774 202.798 329.512 204.607 330.087 206.574C330.519 208.049 331.114 209.367 330.91 210.821C330.716 211.952 330.379 212.59 329.407 213.209C327.789 214.131 326.202 214.079 324.645 213.056C322.309 211.52 320.945 209.365 320.226 206.907C319.487 205.097 319.383 203.309 320.077 201.382C322.058 193.816 324.574 189.514 325.596 187.273C326.946 184.719 328.449 182.333 330.875 180.949C332.329 180.184 333.936 179.586 335.399 178.497C336.372 177.878 337.498 177.428 338.317 176.642C340.117 174.914 340.822 172.664 341.22 170.08C341.617 167.495 341.696 164.899 341.931 162.472C342.154 160.369 342.214 158.423 342.909 156.497C343.256 155.534 343.757 154.738 344.258 153.942C343.336 152.939 342.413 151.935 341.327 151.089C338.847 149.061 336.213 146.866 333.733 144.838C331.407 142.978 329.081 141.117 327.082 138.943C325.237 136.935 323.238 134.761 321.721 132.439C320.501 130.776 319.445 128.957 318.388 127.137C317.937 126.311 316.603 123.184 316.306 122.524C315.864 121.374 315.259 120.38 314.818 119.23C313.782 116.761 312.909 114.136 311.719 111.501C310.836 109.199 309.636 106.888 308.437 104.576C307.38 102.757 306.17 100.77 304.796 98.9398C303.279 96.6183 301.106 94.9248 298.76 93.7132C296.26 92.3346 293.914 91.1229 291.568 89.9113C289.693 88.8771 287.828 87.5185 286.291 85.8454C284.272 84.3196 284.218 80.9086 285.528 79.6519Z" fill="#CADEF1"/>
<path d="M777.881 632.256C774.758 631.823 771.67 632.335 768.664 633.569C764.375 635.466 761.083 639.217 759.238 643.746C757.348 648.501 757.042 653.358 758.413 657.871C761.619 659.024 764.156 661.207 766.334 664.017C767.771 665.965 768.722 668.044 769.188 670.253C769.699 672.238 770.569 673.596 772.548 674.019C773.207 674.16 773.994 674.796 774.654 674.937C778.115 677.084 780.242 675.663 782.598 673.118C783.175 672.538 783.534 671.911 783.845 671.509C784.827 670.078 785.936 669.143 787.613 668.797C789.024 668.629 789.913 667.647 790.409 666.347C791.078 665.317 791.528 664.241 791.977 663.165C792.336 662.538 792.693 661.911 793.051 661.285C794.59 661.614 796.174 661.717 797.494 661.999C798.593 662.234 799.738 662.244 800.975 661.805C801.946 661.544 802.396 660.468 801.655 659.606C800.913 658.744 800.172 657.882 799.384 657.246C797.809 655.971 796.189 654.921 794.394 653.601C794.716 652.028 795.559 651.271 796.576 650.785C797.328 650.477 798.345 649.99 799.051 649.907C800.993 649.384 802.67 649.039 804.612 648.516C805.584 648.254 806.381 647.721 807.178 647.189C808.287 646.254 808.216 644.363 807.034 643.407C806.421 643.042 805.808 642.675 805.194 642.31C801.201 640.519 796.942 638.907 792.545 637.967C790.346 637.498 788.194 636.803 786.088 635.884C783.981 634.966 781.921 633.822 780.079 632.726C778.934 632.715 778.541 632.397 777.881 632.256ZM786.301 657.264C786.951 658.575 787.115 660.017 786.353 661.495C785.592 662.973 785.28 663.376 782.586 664.206C783.184 661.287 783.69 658.816 784.241 656.121C785.213 655.859 786 656.497 786.301 657.264Z" fill="#CADEF1"/>
<path d="M746.221 682.695C746.635 680.673 746.829 678.605 746.756 676.714C746.566 673.157 746.111 669.778 745.169 666.529C744.53 664.048 743.624 661.744 742.985 659.263C741.788 655.022 740.811 650.828 740.053 646.681C739.715 644.967 739.643 643.076 739.791 641.232C739.995 637.994 741.333 635.935 744.514 634.974C745.751 634.535 746.722 634.273 747.959 633.835C750.213 632.909 751.716 632.293 752.222 629.822C752.268 629.597 752.314 629.373 752.534 629.42C752.973 629.514 753.843 630.871 753.347 632.173C752.806 633.697 751.742 634.408 750.459 635.072C749.442 635.558 748.205 635.997 747.188 636.483C744.182 637.717 742.843 639.775 743.125 642.882C743.525 647.657 744.281 651.804 745.479 656.045C746.138 656.186 746.844 656.103 747.504 656.243C750.408 656.629 752.212 656.78 755.07 657.391C754.732 655.677 754.395 653.965 754.496 652.345C754.434 649.284 754.996 645.419 756.345 642.19C758.594 636.81 762.509 632.254 767.595 629.824C768.346 629.515 769.318 629.254 770.069 628.946C768.356 628.346 766.863 627.792 765.151 627.191C763.218 626.544 761.332 625.673 759.445 624.8C756.111 623.151 753.933 620.341 753.037 616.868C752.526 614.883 752.234 612.945 751.722 610.96C749.199 601.982 743.754 594.957 739.873 590.377C730.499 578.997 718.979 571.379 704.469 568.279C695.456 566.353 686.479 565.374 677.455 564.618C676.09 564.56 674.77 564.279 673.452 563.997C671.253 563.528 669.458 562.207 668.553 559.904C668.031 559.089 667.775 558.096 667.52 557.104C663.918 545.55 665.025 534.533 671.94 524.289C677.919 515.251 686.288 510.24 697.299 510.248C698.445 510.258 699.59 510.269 700.827 509.829C701.579 509.521 702.55 509.26 703.128 508.679C704.548 507.342 704.477 505.452 703.122 504.224C701.547 502.95 699.834 502.35 697.983 502.423C690.673 502.268 683.571 503.33 677.111 506.873C665.782 512.893 658.785 522.416 656.605 535.314C655.538 541.65 655.616 547.997 656.134 554.437C656.523 560.381 657.307 566.644 657.697 572.588C657.851 575.2 658.005 577.812 658.159 580.423C658.23 582.314 658.082 584.158 658.201 585.825C658.125 589.559 658.223 593.566 658.367 597.348C658.481 604.639 658.549 612.156 658.442 619.4C658.469 621.516 658.541 623.407 658.567 625.522C658.556 626.693 658.547 627.863 658.756 629.08C659.038 632.187 661.273 633.603 664.233 632.594C665.47 632.154 666.314 631.397 666.983 630.368C667.652 629.339 668.148 628.038 668.644 626.737C669.369 624.313 669.389 621.973 669.455 619.408C669.419 618.463 669.428 617.293 669.612 616.394C669.98 614.597 671.089 613.662 672.802 614.263C673.682 614.45 674.295 614.816 674.909 615.182C679.296 617.291 683.785 617.781 688.503 617.148C690.84 616.944 693.268 616.29 695.001 614.551C699.795 610.182 701.604 604.708 700.207 598.08C699.065 592.444 696.329 587.874 691.998 584.37C691.605 584.052 690.377 583.32 690.735 582.693C691.047 582.291 693.941 583.847 695.122 584.802C699.627 588.578 702.317 593.373 703.413 599.233C704.507 605.094 703.404 610.485 699.269 614.993C698.38 615.976 695.85 618.249 695.538 618.651C701.418 621.313 705.136 624.452 707.488 627.533C707.002 627.664 706.736 627.842 706.471 628.019C703.025 629.159 699.498 629.577 695.97 629.996C691.471 630.676 687.238 631.178 682.648 632.307C678.102 633.212 672.439 636.222 668.845 639.206C667.424 640.544 666.004 641.88 664.756 643.49C663.198 645.501 662.692 647.972 663.505 650.725C664.063 652.485 665.244 653.44 667.095 653.367C668.02 653.33 668.771 653.022 669.743 652.761C671.952 652.06 673.812 650.817 675.719 649.349C677.313 648.282 678.734 646.944 680.503 646.15C691.786 640.355 702.266 640.718 715.6 647.318C719.987 649.428 723.842 651.892 728.137 654.451C728.531 654.769 729.098 655.359 729.273 655.631C729.794 656.445 730.096 657.213 730.352 658.206C733.334 664.938 735.298 672.156 736.823 679.281C737.033 680.498 737.417 681.987 737.892 683.026C738.798 685.329 740.639 686.425 742.975 686.222C744.34 686.278 745.761 684.942 746.221 682.695Z" fill="#CADEF1"/>
</g>
</svg>
