<svg width="108" height="52" viewBox="0 0 108 52" fill="none" xmlns="http://www.w3.org/2000/svg">
<g clip-path="url(#clip0_110_220)">
<path fill-rule="evenodd" clip-rule="evenodd" d="M108 9.59221C108 4.30808 103.65 0 98.3149 0H9.68525C4.34979 0 0 4.30808 0 9.59221V42.4078C0 47.692 4.34979 52 9.68525 52H98.3149C103.65 52 108 47.692 108 42.4078V9.59221Z" fill="#1378C6"/>
<path d="M88.6328 14.0352C88.6328 12.7225 89.6863 11.6455 91.0117 11.6455C92.303 11.6455 93.3905 12.7225 93.3905 14.0352C93.3905 15.3478 92.337 16.4585 91.0117 16.4585C89.6863 16.4585 88.6328 15.3814 88.6328 14.0352ZM92.9487 14.0352C92.9487 12.9581 92.0652 12.0494 91.0117 12.0494C89.9242 12.0494 89.0746 12.9581 89.0746 14.0352C89.0746 15.1122 89.9582 16.0546 91.0117 16.0546C92.0652 16.0546 92.9487 15.1458 92.9487 14.0352ZM90.1961 12.8908H91.0796C91.5554 12.8908 91.8613 13.0928 91.8613 13.463C91.8613 13.7996 91.6913 13.9678 91.4535 14.1025L91.9972 15.0449L91.4195 15.1122L90.9437 14.2034H90.7058V15.0785H90.1621V12.8908H90.1961ZM90.7398 13.9005H90.9437C91.2156 13.9005 91.3175 13.6986 91.3175 13.5303C91.3175 13.2947 91.1476 13.2274 90.9777 13.2274H90.7398V13.9005Z" fill="white"/>
<path d="M96.0074 39.1765H89.5506L87.0358 31.8729H77.6563C74.9036 34.1952 71.7432 34.5991 71.7432 34.5991L80.9867 12.0826H85.7444L96.0074 39.1765ZM79.2536 28.2716H86.1182L82.7539 18.0736L79.2536 28.2716Z" fill="white"/>
<path d="M20.1825 39.6477C16.988 39.6477 13.9974 38.638 12.1283 36.9215L12.0264 36.8205L14.1673 33.4885L14.3033 33.5894C15.8325 34.7001 17.4298 35.7098 19.7407 35.7098C21.6098 35.7098 23.7847 34.7675 23.7847 32.1758C23.7847 29.8535 21.4059 28.1707 19.3328 26.6561C15.7646 24.0982 13.1818 22.0451 13.1818 18.2755C13.1818 14.5396 17.022 11.6115 21.9156 11.6115C25.212 11.6115 27.6588 12.8231 28.8483 14.0011L28.9502 14.1021L26.8432 17.1312L26.7073 17.0302C25.8577 16.4581 24.1925 15.5157 22.4254 15.5157C20.3864 15.5157 19.095 16.559 19.095 18.1746C19.095 19.7228 20.7942 21.069 24.0905 23.627C27.6928 26.3868 29.6978 28.7428 29.6978 32.1758C29.6978 35.8781 26.1295 39.6477 20.1825 39.6477Z" fill="white"/>
<path d="M38.8431 39.177H33.0659V12.1168H41.7317C48.1886 12.1168 51.7569 14.9104 51.7569 19.9925C51.7569 23.1226 49.9218 27.3635 44.8582 28.6424C42.2415 29.2819 40.0326 27.801 40.5083 25.2767C43.4309 25.546 46.0137 23.8968 46.0137 20.1945C46.0137 17.5019 44.2805 16.0547 41.154 16.0547H38.8771V39.177H38.8431Z" fill="white"/>
<path d="M69.122 11.6455C64.4662 11.6455 60.4562 13.1264 57.5336 15.8863C54.7809 18.4779 53.2856 22.0119 53.2856 25.7815C53.2856 28.5749 53.9993 31.3012 55.3247 33.5226C56.5141 35.4747 58.3152 37.1575 60.5242 38.3691C62.903 39.6817 65.6557 40.3549 68.4763 40.3549C68.5443 40.3549 68.6122 40.3549 68.6802 40.3549C74.6614 40.2876 78.6034 37.3931 79.1472 35.34C79.3851 34.4649 79.0792 33.7581 78.2636 33.3206L78.1277 33.2196L77.9917 33.3206C75.1711 35.6766 72.0786 36.1815 69.9716 36.1815C68.4083 36.1815 66.8791 35.9122 65.5198 35.4073C61.9175 34.061 59.6746 30.3251 59.6746 25.8824C59.6746 19.9924 63.4808 16.0209 69.156 16.0209C71.5688 16.0209 73.9137 17.0979 74.5594 17.4345L74.7973 17.5691L74.8992 17.3335L76.3265 13.8669L76.3945 13.6649L76.1906 13.5303C74.5934 12.6552 72.0446 11.6455 69.122 11.6455Z" fill="white"/>
</g>
<defs>
<clipPath id="clip0_110_220">
<rect width="108" height="52" fill="white"/>
</clipPath>
</defs>
</svg>
